<mxfile host="app.diagrams.net" modified="2023-09-29T02:30:58.113Z" agent="Mozilla/5.0 (Linux; Android 12; AGS5-W09 Build/HUAWEIAGS5-W09; wv) AppleWebKit/537.36 (KHTML, like Gecko) Version/4.0 Chrome/92.0.4515.105 Safari/537.36" version="22.0.0" etag="36QaAAVUgE3uAz5Lne7g" type="github">
  <diagram name="PÃ¡gina-1" id="Am238VyM9O2ygy_Ld3mf">
    <mxGraphModel>
      <root>
        <mxCell id="0" />
        <mxCell id="1" parent="0" />
      </root>
    </mxGraphModel>
  </diagram>
</mxfile>
